<svg xmlns="http://www.w3.org/2000/svg" width="250" height="50" viewBox="0 0 606.84 104.61">
    <path d="M243.16,41v69.36h-7.83V50.73l0-2.08.06-2.08h-.21l-.61,1.62c-.3.82-.51,1.34-.61,1.58L232.69,53l-23.63,57.37h-7.82L177.56,53.68l-1.37-3.2-.61-1.63a16.47,16.47,0,0,1-.61-1.57h-.21l.05,1.88.05,1.93v59.3H167V41h13.57L199.1,85.9l3,7.26,1.47,3.61,1.43,3.61h.2l1.42-3.61c.71-1.73,1.19-2.93,1.43-3.61L211,86,229.39,41Z" transform="translate(-30.84 -19.79)" fill="#fff"/>
    <path d="M281.68,40.32q19.67,0,24.59,5.74t4.93,28.71q0,24.75-4.73,30.54t-24.79,5.79q-20,0-24.78-5.74t-4.8-29.68V70.81l.1-6.56q0-13.81,6.23-18.88T281.68,40.32Zm-.05,6.6q-16.47,0-19.26,3.66t-2.8,25.1q0,21.5,2.8,25.16t19.26,3.66q16.51,0,19.31-3.66t2.79-25.16V71.16l-.05-6.55q0-11.49-3.86-14.59T281.63,46.92Z" transform="translate(-30.84 -19.79)" fill="#fff"/>
    <path d="M344.33,48.3v62.09h-7.82V48.3H313.89V41h52.85V48.3Z" transform="translate(-30.84 -19.79)" fill="#fff"/>
    <path d="M381.53,41v69.36H373.7V41Z" transform="translate(-30.84 -19.79)" fill="#fff"/>
    <path d="M440.37,87.22h7.78v2.64q0,14.17-4.83,17.71T419,111.1q-17.43,0-22.16-6.22t-4.72-29.3q0-18,1.07-22.69t6.09-8.3q5.9-4.28,25.46-4.27,13.26,0,17.86,4.11t4.6,15.91l0,1.88h-7.77l-.05-2.14q0-8.38-2.72-10.77t-12.27-2.39q-16.77,0-20.48,2.8t-3.71,15.5q0,29.22,2.49,34.25t17,5q13.83,0,17.25-2.19t3.43-11Z" transform="translate(-30.84 -19.79)" fill="#fff"/>
    <path d="M482.35,40.32q19.65,0,24.59,5.74t4.93,28.71q0,24.75-4.73,30.54t-24.79,5.79q-20,0-24.78-5.74t-4.8-29.68V70.81l.1-6.56q0-13.81,6.23-18.88T482.35,40.32Zm-.06,6.6q-16.46,0-19.25,3.66t-2.8,25.1q0,21.5,2.8,25.16t19.25,3.66q16.51,0,19.31-3.66t2.8-25.16V71.16l0-6.55q0-11.49-3.86-14.59T482.29,46.92Z" transform="translate(-30.84 -19.79)" fill="#fff"/>
    <path d="M520.81,110.39V41h33q11.17,0,15.75,4.42t4.58,15.35q0,9.6-2.49,13.39t-9.51,4.9v.15q11,.81,11,13.42v17.73h-7.82v-16q0-12.14-10.52-12.14H528.64v28.1Zm7.83-34.71h22.61q8.94,0,12.2-2.71t3.25-10.24q0-9.4-2.42-12.25t-10.34-2.85h-25.3Z" transform="translate(-30.84 -19.79)" fill="#fff"/>
    <path d="M585.65,110.39V41h31.76q11.75,0,16,4.52t4.27,16.92q0,11.9-4.45,16.21T616.55,83l-3,0h-20v27.34Zm7.83-33.94H612q11.64,0,14.92-2.39t3.28-11q0-10.06-2.22-12.73t-10.49-2.66l-3-.06h-21Z" transform="translate(-30.84 -19.79)" fill="#fff"/>
    <path d="M83.15,124.41a52.31,52.31,0,1,1,52.3-52.31A52.37,52.37,0,0,1,83.15,124.41Zm0-99.63A47.32,47.32,0,1,0,130.47,72.1,47.38,47.38,0,0,0,83.15,24.78Z" transform="translate(-30.84 -19.79)" fill="#f3822f"/>
    <polygon points="36.12 86.89 56.18 52.85 36.12 18.81 93.55 52.85 36.12 86.89" fill="#f3822f"/>
</svg>